<?xml version="1.0" standalone="no"?>
<!DOCTYPE svg PUBLIC "-//W3C//DTD SVG 20010904//EN"
 "http://www.w3.org/TR/2001/REC-SVG-20010904/DTD/svg10.dtd">
<svg version="1.0" xmlns="http://www.w3.org/2000/svg"
 width="1185.000000pt" height="1185.000000pt" viewBox="0 0 1185.000000 1185.000000"
 preserveAspectRatio="xMidYMid meet">
<metadata>
Created by potrace 1.11, written by Peter Selinger 2001-2013
</metadata>
<g transform="translate(0.000000,1185.000000) scale(0.100000,-0.100000)"
fill="#000000" stroke="none">
<path d="M3819 11834 c-30 -15 -72 -67 -83 -101 -4 -11 -13 -27 -21 -33 -24
-20 -17 -44 25 -85 41 -40 48 -62 29 -97 -9 -16 -5 -32 21 -84 26 -53 45 -74
118 -132 48 -38 101 -85 117 -105 17 -21 51 -60 78 -87 67 -72 64 -84 -20 -77
-38 3 -97 15 -133 26 -36 11 -94 27 -130 36 -86 22 -127 41 -173 83 -34 30
-41 32 -55 19 -10 -8 -30 -13 -47 -10 -28 4 -197 98 -227 126 -7 6 -38 32 -68
57 -30 25 -57 47 -60 50 -3 3 -30 25 -60 50 -30 24 -66 55 -79 67 -22 21 -43
30 -82 36 -26 4 -39 18 -39 43 0 21 -5 24 -36 24 -28 0 -35 -4 -32 -17 2 -10
12 -22 23 -28 12 -6 19 -18 17 -31 -4 -25 44 -59 153 -109 57 -26 77 -41 90
-67 25 -48 54 -76 86 -83 26 -6 79 -56 79 -74 0 -4 -19 -17 -42 -29 -24 -12
-59 -31 -78 -42 -33 -19 -35 -19 -39 -3 -5 25 -21 43 -38 43 -8 0 -28 9 -44
21 -38 27 -56 19 -65 -27 -5 -28 -13 -39 -39 -50 -36 -15 -45 -30 -45 -76 0
-17 -13 -52 -29 -77 -39 -61 -44 -117 -16 -173 31 -61 71 -82 152 -79 29 1 36
7 54 47 22 46 60 77 129 104 50 20 186 99 255 148 32 23 63 42 70 42 18 0 59
-48 114 -135 41 -64 51 -88 51 -123 0 -46 -13 -79 -39 -100 -22 -17 -80 -42
-100 -42 -9 0 -61 -19 -116 -43 -157 -68 -345 -130 -432 -142 -103 -14 -331
-86 -345 -108 -11 -19 13 -38 41 -33 14 3 58 8 96 11 39 3 79 8 90 10 11 2 47
7 80 10 33 4 74 8 90 11 49 7 124 14 225 19 52 3 111 11 131 16 42 13 74 1 84
-32 4 -11 5 -21 3 -22 -1 -1 -21 -11 -42 -22 -26 -13 -44 -31 -53 -53 -14 -34
-10 -41 50 -89 29 -23 112 -44 166 -42 66 3 115 17 371 103 253 86 322 100
480 97 69 -1 160 -2 202 -2 89 0 104 -12 83 -64 -10 -24 -10 -36 2 -70 10 -27
13 -58 8 -98 -9 -85 21 -107 166 -121 19 -2 63 3 98 10 49 10 68 11 79 2 11
-9 19 -5 39 20 28 37 70 57 134 65 75 9 102 19 176 64 39 23 74 43 78 43 12 0
121 74 140 95 11 13 38 26 60 30 22 3 81 20 130 36 111 37 132 35 244 -30 47
-27 126 -66 176 -86 104 -42 168 -77 210 -117 29 -27 94 -54 125 -52 68 3 150
22 230 54 52 20 113 43 134 50 22 7 61 28 87 47 26 18 78 44 116 56 59 19 70
27 84 57 10 19 15 38 12 43 -7 11 34 8 96 -7 90 -23 112 -25 428 -41 77 -4
150 -15 230 -36 282 -73 354 -82 473 -64 61 9 80 21 80 50 0 14 2 25 4 25 23
0 233 -85 315 -127 57 -29 111 -53 120 -53 24 0 41 19 33 39 -7 17 -42 50 -55
51 -4 0 -13 4 -20 10 -7 5 -25 20 -41 33 -15 12 -38 43 -50 67 -26 55 -73 87
-181 125 -177 60 -265 107 -341 180 -75 72 -84 98 -56 165 42 102 172 235 397
408 117 90 125 96 125 105 0 19 -52 2 -178 -59 -228 -109 -495 -189 -517 -154
-13 21 181 169 282 216 81 37 158 106 193 173 12 24 30 76 40 117 23 90 26 94
51 94 52 0 76 -49 49 -98 -5 -9 -19 -41 -31 -69 -12 -29 -25 -53 -30 -53 -5 0
-9 -9 -9 -20 0 -11 -11 -30 -25 -42 -28 -24 -33 -58 -9 -58 8 0 45 20 82 44
37 23 77 48 89 54 12 7 24 20 28 29 3 10 28 33 56 52 28 19 91 73 141 120 97
92 112 125 72 157 -28 22 -139 10 -244 -26 -89 -31 -138 -37 -155 -21 -6 5
-29 12 -52 15 -24 3 -55 12 -70 19 -47 23 -178 13 -226 -17 -12 -8 -49 -16
-82 -20 -33 -3 -83 -15 -112 -25 -49 -19 -117 -33 -228 -46 -41 -5 -88 -13
-115 -20 -20 -5 -107 -16 -163 -19 -38 -3 -101 -12 -140 -21 -40 -9 -82 -18
-94 -21 -12 -2 -28 -10 -36 -18 -12 -13 -21 -11 -64 16 -55 34 -83 72 -83 112
0 19 -10 32 -37 50 -103 67 -281 63 -394 -9 -81 -51 -131 -75 -162 -75 -58 0
-183 -87 -261 -182 -27 -33 -59 -64 -72 -68 -46 -18 -110 -127 -153 -259 -25
-77 -26 -104 -6 -121 12 -10 23 -9 57 5 24 9 63 24 88 32 25 9 68 30 95 49 69
46 165 141 165 164 0 11 16 34 35 53 19 19 35 42 35 51 0 9 8 19 18 22 9 3 36
15 60 26 24 11 46 17 49 14 4 -3 1 -6 -5 -6 -17 0 -92 -105 -145 -203 -41 -73
-54 -89 -129 -143 -97 -72 -127 -88 -211 -115 -83 -27 -128 -34 -217 -33 -125
2 -178 35 -294 187 -57 74 -67 93 -63 116 4 20 0 35 -13 49 -11 11 -29 51 -41
89 -29 90 -51 126 -115 196 -30 32 -54 62 -54 68 0 5 -1 12 -2 16 -2 5 6 8 17
8 29 0 32 53 5 88 -19 24 -26 26 -78 23 -69 -4 -116 -24 -120 -51 -6 -38 -12
-45 -39 -45 -33 0 -73 -25 -73 -45 0 -7 -33 -44 -74 -82 -62 -58 -76 -77 -93
-128 -11 -33 -19 -76 -17 -95 2 -19 3 -51 3 -70 0 -19 0 -50 1 -67 0 -32 -1
-33 -41 -33 -38 0 -40 -2 -37 -27 5 -44 -17 -36 -41 15 -31 66 -33 115 -5 197
13 39 23 84 24 102 0 29 -5 34 -54 57 -30 14 -57 26 -61 26 -3 0 -56 23 -117
51 -79 36 -128 52 -167 55 -89 7 -121 13 -165 33 -23 10 -60 21 -81 25 -22 4
-65 16 -94 27 -31 11 -65 18 -79 14 -14 -3 -49 4 -88 20 -75 30 -167 38 -205
19z m4769 -63 c-2 -8 -11 -19 -21 -25 -14 -8 -20 -8 -27 4 -17 26 -11 37 20
36 20 -1 30 -6 28 -15z m-130 -19 c15 -10 5 -45 -12 -39 -13 4 -21 47 -9 47 4
0 14 -4 21 -8z m-4390 -27 c12 -13 50 -39 84 -56 35 -17 78 -42 96 -56 17 -13
32 -21 32 -16 0 4 20 -26 45 -66 73 -119 152 -226 192 -262 61 -55 185 -128
228 -134 75 -11 100 -17 137 -36 21 -11 50 -19 66 -19 21 0 32 -7 40 -25 15
-33 15 -58 1 -72 -11 -11 -16 -10 -84 18 -11 4 -58 20 -105 34 -137 42 -185
71 -290 175 -70 69 -109 120 -148 187 -56 96 -83 123 -167 166 -71 35 -154 98
-161 122 -22 64 -5 84 34 40z m3357 -201 c3 -21 13 -46 20 -58 8 -12 12 -36
10 -54 -6 -46 -58 -150 -99 -199 -38 -44 -43 -55 -23 -48 6 2 38 6 69 9 31 3
103 17 160 30 57 14 120 28 141 31 21 3 48 16 60 28 12 12 27 22 32 23 33 3
175 85 183 106 2 4 10 8 17 8 8 0 18 6 22 13 4 7 27 21 50 31 23 10 50 27 59
37 18 20 59 26 68 10 3 -4 -20 -29 -52 -54 -31 -25 -86 -69 -122 -98 -36 -28
-78 -58 -95 -65 -16 -7 -53 -31 -82 -52 -31 -23 -80 -48 -120 -60 -103 -32
-292 -79 -343 -87 -24 -4 -48 -9 -53 -12 -4 -2 -39 -5 -78 -5 -57 0 -77 5
-114 27 -52 30 -58 57 -20 87 14 11 37 42 50 68 13 26 50 74 82 107 45 44 64
74 82 123 28 78 37 90 66 90 18 0 24 -7 30 -36z m-1078 -231 c9 -36 5 -54 -15
-70 -42 -31 -54 -4 -27 61 18 43 32 46 42 9z m-3229 -146 c32 8 28 -21 -3 -35
-36 -16 -60 -15 -76 4 -11 14 -10 18 5 30 13 9 24 10 36 4 9 -5 26 -6 38 -3z
m4034 -611 c24 -29 58 -63 76 -76 17 -12 32 -28 32 -35 0 -26 -70 7 -109 51
-36 41 -68 114 -51 114 5 0 28 -24 52 -54z"/>
<path d="M5599 11670 c53 -48 77 -53 69 -15 -4 24 -46 52 -88 59 l-35 5 54
-49z"/>
<path d="M3158 11615 c-8 -8 -33 -13 -70 -14 -20 -1 -28 -6 -28 -19 0 -10 12
-30 28 -44 69 -65 283 -204 340 -223 11 -3 26 -12 32 -20 31 -37 102 -3 79 37
-8 15 -4 16 38 11 58 -6 65 -12 78 -65 8 -33 15 -42 35 -45 14 -1 58 -10 98
-19 75 -16 92 -14 75 8 -84 108 -140 176 -154 188 -10 8 -28 33 -41 55 -69
118 -83 135 -113 140 -16 3 -84 5 -150 4 -66 -1 -147 2 -180 6 -33 4 -63 4
-67 0z"/>
<path d="M4125 10063 c-22 -8 -65 -15 -95 -16 l-55 -2 3 -31 c3 -37 -31 -71
-115 -112 -45 -22 -57 -24 -73 -14 -33 21 -53 15 -48 -13 3 -14 2 -26 -1 -26
-20 -4 -51 -3 -49 1 1 3 -4 15 -11 28 -18 35 -7 54 64 106 54 40 64 51 54 63
-7 7 -18 12 -26 9 -7 -3 -24 -1 -37 4 -18 6 -28 5 -37 -6 -7 -8 -20 -12 -31
-8 -14 4 -21 0 -25 -15 -7 -27 -11 -26 -40 5 -22 24 -28 25 -91 20 -89 -8
-100 -8 -148 0 -48 7 -84 -8 -84 -35 0 -21 -67 -61 -100 -61 -11 0 -30 -12
-43 -26 -43 -51 -107 -67 -161 -43 -19 9 -36 9 -73 -2 -26 -7 -65 -13 -85 -12
-43 1 -55 -17 -28 -42 14 -12 23 -14 37 -7 14 8 31 5 65 -10 54 -23 54 -44 0
-47 -20 -1 -62 -5 -92 -9 -45 -6 -55 -11 -56 -27 -1 -11 -2 -25 -3 -31 -1 -15
-45 -23 -65 -12 -9 5 -28 32 -42 61 -15 29 -29 54 -33 57 -3 3 -22 22 -40 43
-27 29 -32 40 -23 49 17 17 15 48 -2 48 -8 0 -18 -5 -21 -10 -3 -6 -18 -8 -31
-6 -21 4 -29 -2 -46 -31 -21 -35 -22 -35 -74 -29 -46 5 -55 3 -67 -14 -12 -17
-16 -18 -32 -6 -12 9 -15 15 -7 20 20 12 13 36 -14 46 -33 13 -49 1 -58 -40
-7 -35 -31 -48 -57 -32 -31 19 -49 14 -49 -13 l0 -25 -41 22 -40 21 -30 -22
c-34 -26 -39 -11 -9 34 25 37 25 37 0 53 -18 11 -32 0 -159 -127 -111 -111
-145 -151 -169 -202 -17 -35 -34 -76 -37 -91 -5 -21 -14 -28 -38 -30 -32 -3
-32 -3 -29 -53 3 -42 0 -54 -20 -71 -13 -12 -35 -24 -50 -28 -17 -4 -25 -11
-22 -19 2 -7 -9 -30 -25 -51 -34 -43 -106 -209 -152 -350 -17 -54 -49 -128
-70 -165 -48 -81 -124 -238 -145 -300 -8 -25 -14 -68 -13 -96 2 -37 -3 -62
-21 -95 -17 -33 -24 -64 -25 -115 -2 -60 -11 -89 -59 -205 -32 -74 -61 -144
-65 -155 -5 -11 -29 -69 -54 -130 -54 -131 -103 -297 -123 -414 -9 -56 -28
-116 -54 -171 -27 -58 -50 -130 -70 -225 -16 -77 -35 -154 -40 -171 -6 -17
-13 -41 -15 -53 -2 -13 -7 -31 -10 -40 -30 -96 -39 -832 -11 -966 2 -12 7 -66
10 -120 3 -55 8 -120 11 -145 2 -25 6 -80 9 -123 3 -43 10 -94 16 -113 6 -18
9 -55 7 -81 -4 -49 16 -142 53 -238 10 -27 24 -75 30 -105 7 -30 19 -71 28
-90 9 -19 17 -43 18 -54 1 -10 7 -22 15 -27 7 -4 10 -11 7 -15 -4 -4 -1 -16 7
-28 8 -11 15 -30 15 -41 0 -11 11 -33 25 -49 14 -16 26 -34 27 -40 2 -21 5
-31 11 -46 3 -8 11 -35 17 -60 7 -25 20 -59 31 -76 10 -17 19 -39 19 -49 0
-10 9 -32 20 -50 11 -17 22 -49 25 -70 2 -21 11 -47 18 -59 8 -11 17 -33 21
-48 7 -32 156 -283 221 -373 75 -106 286 -351 415 -484 102 -105 223 -209 311
-268 295 -197 498 -280 799 -328 19 -3 58 -17 85 -30 28 -13 93 -33 145 -45
68 -14 107 -29 138 -51 39 -28 51 -31 135 -34 51 -2 117 -7 147 -10 30 -4 170
-8 310 -9 220 -1 259 -3 287 -18 17 -10 57 -20 88 -22 41 -4 71 -14 105 -36
27 -17 84 -40 127 -50 43 -11 170 -51 283 -90 113 -40 213 -73 223 -75 62 -13
144 -86 173 -154 17 -40 29 -278 14 -296 -4 -5 -11 -26 -15 -45 -11 -52 -52
-147 -89 -204 -18 -28 -80 -98 -137 -156 -197 -200 -202 -209 -173 -353 10
-47 -5 -111 -32 -142 -42 -48 -64 -101 -64 -150 0 -50 10 -77 45 -115 13 -14
56 -74 96 -134 41 -60 84 -123 96 -140 12 -17 22 -37 22 -43 1 -10 244 -13
1180 -13 l1179 0 21 36 c12 20 59 82 104 137 217 266 232 349 107 596 -53 105
-81 145 -186 258 -199 214 -257 309 -291 483 -12 59 -8 304 5 331 20 40 138
113 237 145 181 60 302 106 391 149 181 88 226 99 439 110 131 6 248 15 265
20 8 2 31 7 50 10 19 3 63 18 98 32 36 14 80 27 98 29 57 5 101 21 137 48 29
23 49 28 118 32 46 3 91 10 101 15 10 5 18 7 18 5 0 -3 21 4 48 15 26 12 70
28 97 36 28 8 61 23 75 33 25 18 79 38 123 45 67 13 235 67 337 110 186 78
306 146 344 193 11 13 62 56 115 95 152 111 375 292 429 347 21 22 42 40 46
40 25 0 112 96 231 256 61 82 133 171 160 199 28 27 59 67 70 88 11 21 47 67
80 101 79 81 88 96 120 196 82 253 110 334 146 422 40 99 63 184 74 273 4 28
8 61 10 75 2 14 6 50 10 80 6 52 11 84 20 140 12 75 27 169 31 200 2 19 6 45
9 58 2 13 7 53 11 90 3 37 8 76 10 87 2 11 7 83 10 160 3 80 12 158 21 183 8
25 12 60 9 80 -3 21 -8 69 -11 107 -11 136 -37 332 -51 395 -3 14 -8 43 -11
65 -9 86 -33 179 -57 221 -22 40 -61 174 -73 249 -4 28 -38 221 -49 275 -21
106 -63 235 -107 330 -19 41 -38 86 -42 100 -4 14 -18 41 -30 60 -13 19 -31
68 -40 108 -12 50 -27 87 -50 117 -48 62 -62 93 -69 150 -11 99 -59 214 -98
239 -13 7 -26 7 -46 0 -27 -10 -28 -9 -24 11 2 12 -5 40 -17 63 -18 35 -18 42
-6 52 18 15 5 44 -27 61 -18 10 -24 8 -40 -11 -18 -22 -18 -24 2 -57 29 -49
26 -69 -11 -65 -4 1 -7 -40 -7 -90 -1 -89 -9 -117 -31 -104 -7 5 -7 15 1 34
14 35 11 85 -9 150 -22 68 -44 82 -78 48 -29 -29 -31 -55 -9 -97 15 -30 13
-43 -7 -45 -5 -1 -13 -2 -19 -3 -5 0 -10 -19 -10 -41 0 -76 -22 -37 -59 107
-11 38 -58 93 -82 93 -5 0 -6 -21 -2 -46 5 -38 3 -46 -8 -42 -9 3 -14 21 -15
52 -2 79 -91 191 -138 173 -17 -7 -15 -30 9 -96 14 -40 14 -41 -5 -31 -11 6
-23 22 -26 36 -3 13 -26 41 -50 60 -28 24 -44 44 -44 59 0 17 -16 32 -60 60
-60 37 -72 60 -52 92 14 22 69 -6 76 -38 3 -15 17 -39 32 -54 26 -26 28 -26
40 -10 18 25 -5 68 -46 85 -17 7 -42 26 -55 42 -18 21 -32 29 -45 25 -14 -3
-33 8 -65 38 -45 43 -46 44 -79 30 -32 -14 -34 -13 -45 11 -10 23 -9 26 9 31
11 3 21 9 21 14 1 5 2 13 3 18 3 23 19 21 75 -8 33 -17 68 -31 77 -31 23 0 74
-26 108 -55 60 -52 63 -21 4 45 -24 25 -49 55 -55 66 -7 10 -24 35 -37 55 -13
21 -27 48 -31 60 -12 39 -36 59 -71 59 -18 0 -36 -5 -39 -10 -15 -23 -27 5
-21 47 6 48 -3 74 -38 109 -24 24 -70 41 -103 38 -13 -1 -35 -2 -49 -3 -17 -1
-28 -8 -31 -21 -3 -11 -13 -20 -23 -20 -22 0 -76 44 -78 62 0 7 -7 31 -15 53
-13 35 -19 40 -49 41 -18 1 -48 5 -65 9 -27 6 -34 4 -40 -11 -14 -37 -8 -102
11 -123 11 -12 16 -21 12 -21 -17 0 -70 34 -92 58 l-24 27 -25 -30 c-53 -64
-57 -67 -68 -56 -6 6 -17 11 -25 11 -17 0 -82 -68 -82 -86 0 -8 -9 -14 -20
-14 -30 0 -24 23 15 59 19 17 35 36 35 41 0 5 -21 20 -47 32 -35 17 -54 35
-72 66 l-23 43 -20 -20 c-10 -12 -23 -21 -29 -21 -5 0 -36 -27 -68 -59 -32
-33 -77 -69 -99 -80 -30 -15 -48 -34 -65 -68 -28 -57 -52 -67 -55 -24 -2 23 5
35 29 54 27 21 30 28 24 56 -6 29 -10 32 -38 30 -44 -3 -75 8 -82 31 -8 24
-38 34 -81 25 -24 -4 -43 -1 -64 11 -23 14 -34 15 -54 6 -22 -10 -23 -14 -16
-49 5 -21 19 -45 31 -53 34 -23 99 -50 100 -42 5 47 20 64 54 60 15 -2 20 -11
20 -33 1 -49 -12 -65 -50 -65 -27 0 -36 -5 -45 -27 -11 -24 -18 -28 -53 -26
-29 1 -46 8 -64 28 -21 22 -30 25 -56 19 -18 -4 -41 -13 -53 -20 -18 -13 -24
-12 -44 6 -15 13 -35 20 -57 18 -25 -2 -40 4 -59 25 -27 30 -40 34 -47 15 -9
-26 -29 10 -29 50 1 26 -4 42 -14 46 -23 9 -44 -5 -44 -29 0 -17 -14 -29 -62
-55 -71 -37 -126 -43 -174 -18 -37 18 -57 10 -52 -22 2 -19 -4 -25 -37 -35
-87 -26 -110 -58 -60 -85 32 -17 32 -28 0 -36 -13 -3 -29 -12 -36 -20 -16 -20
-24 -18 -37 11 -14 31 -42 33 -42 3 l0 -21 -22 20 c-38 33 -57 36 -70 8 -14
-31 -17 -31 -78 0 -27 14 -58 25 -68 25 -11 0 -37 16 -58 35 -21 19 -48 35
-60 35 -38 0 -54 11 -54 36 0 22 -11 30 -35 24 -5 -2 -21 -3 -34 -4 -43 -2
-32 -20 33 -54 35 -18 82 -53 106 -78 23 -24 56 -51 75 -58 37 -16 49 -34 59
-87 4 -21 13 -42 21 -49 24 -20 18 -26 -27 -30 -108 -11 -142 -6 -185 25 -24
17 -43 36 -43 43 0 7 16 20 35 28 26 11 35 20 35 38 0 35 -10 55 -33 67 -18
10 -19 9 -15 -16 4 -20 0 -30 -19 -42 -30 -20 -32 -18 -85 86 -24 47 -48 86
-54 88 -6 2 -22 -6 -37 -17 -23 -18 -24 -24 -16 -53 8 -29 6 -34 -23 -59 -54
-45 -63 -44 -119 12 -35 35 -58 50 -72 48 -14 -2 -25 5 -33 20 -14 28 -29 43
-21 20 4 -12 -4 -22 -26 -36 -53 -31 -74 -32 -109 -8 -29 20 -33 27 -30 63 l3
41 -48 10 c-44 10 -173 24 -217 23 -25 0 -56 -30 -56 -53 0 -10 -10 -22 -24
-28 -37 -14 -41 -29 -16 -62 15 -21 19 -33 11 -41 -12 -12 -41 7 -41 28 0 7
-7 18 -15 25 -14 12 -15 9 -11 -17 5 -28 4 -31 -30 -36 -20 -4 -44 -13 -53
-22 -33 -29 -157 -17 -289 28 -80 28 -94 36 -107 64 -21 44 -19 62 10 75 18 8
32 8 56 -2 27 -12 33 -11 43 2 20 27 57 40 97 34 31 -5 39 -3 39 9 0 21 -33
52 -77 71 -75 32 -86 32 -138 9 -30 -14 -59 -21 -74 -17 -46 9 -71 5 -89 -18
-14 -17 -30 -23 -69 -25 -46 -2 -102 -27 -103 -47 0 -12 -35 -9 -47 3 -8 8
-18 6 -36 -5 -22 -15 -25 -15 -37 -1 -9 11 -10 19 -3 26 16 16 3 49 -18 49
-25 0 -35 21 -15 32 9 5 45 31 79 57 129 99 183 113 288 76 102 -35 177 -29
130 11 -18 16 -18 19 -4 41 13 19 24 23 67 23 38 0 58 -5 74 -20 27 -25 36
-12 13 19 -12 15 -30 24 -54 25 -29 2 -46 12 -79 49 -39 41 -47 45 -82 42 -22
-2 -42 -9 -46 -15 -19 -31 -109 21 -96 55 7 20 -29 57 -52 53 -27 -5 -25 -42
3 -76 24 -28 27 -52 7 -52 -4 0 -25 15 -47 34 -43 38 -70 47 -103 35 -12 -5
-24 -4 -27 1 -4 6 -18 10 -32 10 -15 0 -33 10 -44 24 -11 14 -34 28 -52 31
-17 4 -37 11 -43 16 -16 13 -23 -10 -13 -40 8 -21 14 -23 48 -17 34 5 41 3 46
-14 3 -11 3 -25 0 -30 -7 -12 -109 -59 -136 -63 -25 -4 -49 -27 -49 -47 0 -9
-8 -24 -17 -32 -22 -19 -150 -40 -256 -43 -70 -2 -76 -1 -65 14 20 25 39 40
83 63 22 11 62 41 89 65 27 24 69 53 93 64 45 20 63 43 47 59 -12 12 -75 14
-147 5 -39 -5 -67 -3 -88 5 -25 11 -32 11 -39 0 -4 -7 -15 -10 -25 -7 -21 9
-12 23 28 43 18 9 42 25 54 36 12 11 29 18 37 15 8 -3 40 -1 71 6 62 13 74 39
20 43 -83 7 -102 6 -124 -5 -14 -8 -41 -11 -70 -7 -25 3 -71 8 -101 12 -63 7
-72 12 -47 25 22 13 22 36 0 47 -12 6 -32 4 -58 -5z m-578 -58 c-4 -8 -2 -17
3 -20 20 -12 9 -44 -22 -63 -29 -19 -34 -19 -49 -6 -11 10 -26 13 -43 8 -49
-12 -29 21 36 59 68 40 83 45 75 22z m-520 -192 c22 -33 1 -48 -38 -28 -31 16
-42 38 -27 53 15 15 47 2 65 -25z m-1009 -30 c-4 -22 -22 -20 -26 1 -2 10 3
16 13 16 10 0 15 -7 13 -17z m1481 -39 c14 -50 6 -64 -32 -59 -18 2 -44 4 -59
4 -47 1 -35 33 25 64 28 15 53 27 54 27 1 0 7 -16 12 -36z m824 11 c42 -37 35
-49 -25 -41 -83 11 -94 27 -38 53 33 15 31 16 63 -12z m-154 -142 c-18 -21
-39 -41 -48 -44 -18 -7 -51 17 -51 37 0 7 8 11 18 10 9 -2 35 5 57 15 58 26
61 23 24 -18z m47 -121 c-8 -7 23 -62 34 -62 6 0 10 -4 10 -10 0 -5 -23 -9
-51 -8 -43 0 -52 4 -59 23 -5 13 -17 25 -27 27 -13 3 -7 10 27 30 33 20 47 24
57 16 8 -6 11 -13 9 -16z m350 -104 c1 -10 -1 -18 -4 -19 -4 0 -17 -2 -29 -5
-29 -5 -37 10 -17 31 20 20 46 16 50 -7z m238 -55 c24 8 31 7 43 -9 12 -16 11
-20 -12 -31 -14 -8 -25 -18 -25 -24 0 -10 -36 -7 -72 5 -10 3 -25 8 -34 11
-15 5 -14 9 6 30 17 18 27 22 44 16 11 -5 34 -4 50 2z m3056 -18 c0 -8 -2 -15
-4 -15 -2 0 -6 7 -10 15 -3 8 -1 15 4 15 6 0 10 -7 10 -15z m978 -27 c16 -16
15 -35 -4 -55 -8 -10 -28 -35 -44 -56 l-28 -38 -16 23 c-23 32 -20 55 9 74 14
9 23 19 20 22 -7 7 25 42 40 42 6 0 16 -5 23 -12z m-848 -38 c0 -19 -43 -70
-60 -70 -5 0 -14 9 -20 20 -9 17 -6 25 14 45 31 31 66 33 66 5z m-3723 -136
c13 -27 14 -36 3 -48 -11 -14 -16 -13 -44 6 -17 11 -42 32 -55 45 -14 15 -30
22 -40 19 -15 -6 -15 -5 0 6 10 8 36 12 68 9 48 -3 54 -6 68 -37z m387 -36 c8
-13 8 -23 0 -35 -12 -20 -53 -30 -55 -14 -5 40 -3 57 6 63 15 12 36 5 49 -14z
m5126 -208 c0 -40 -5 -46 -45 -52 -16 -2 -21 3 -23 28 -3 35 18 64 49 64 16 0
19 -7 19 -40z m198 -246 c26 -18 28 -46 7 -68 -14 -14 -19 -12 -47 19 -25 29
-28 38 -18 50 16 19 30 19 58 -1z m-7178 -59 c0 -9 -11 -27 -24 -40 l-25 -25
22 -15 c23 -16 16 -31 -18 -36 -28 -4 -65 10 -66 24 0 7 -2 20 -4 30 -2 10 3
17 13 17 10 1 35 14 57 30 48 35 45 34 45 15z m280 -70 c10 -12 10 -15 -1 -15
-8 0 -25 -9 -39 -20 -26 -20 -70 -27 -70 -11 0 5 -3 17 -7 27 -5 14 -2 16 18
11 13 -3 35 1 49 8 32 18 35 18 50 0z m-143 -87 c19 -26 8 -43 -29 -49 -20 -3
-44 -12 -53 -19 -11 -9 -19 -10 -26 -3 -8 8 -4 16 15 28 14 10 26 26 26 36 0
14 7 19 29 19 16 0 33 -6 38 -12z m-544 -14 c9 -9 -13 -62 -30 -68 -16 -7 -33
0 -33 13 0 12 40 61 49 61 4 0 10 -3 14 -6z m5576 -66 c5 -13 6 -27 4 -31 -7
-11 -43 23 -43 40 0 22 30 15 39 -9z m2395 -47 c9 -13 -29 -55 -42 -47 -18 11
6 55 30 56 4 0 9 -4 12 -9z m-8824 -145 c0 -8 -6 -19 -13 -25 -11 -8 -16 -6
-24 12 -14 32 -6 49 18 37 10 -6 19 -17 19 -24z m-140 0 c0 -6 10 -18 22 -26
47 -32 106 -92 111 -113 l6 -22 -18 21 c-20 25 -61 41 -61 24 0 -6 5 -21 12
-33 12 -21 21 -107 11 -107 -2 0 -16 13 -29 30 -28 32 -45 35 -56 7 -8 -18 -9
-17 -37 2 -33 24 -47 26 -55 9 -3 -9 -8 -8 -16 5 -16 25 -40 21 -40 -7 0 -17
-7 -25 -25 -28 -30 -6 -35 -2 -35 29 0 16 6 23 19 23 11 0 32 12 48 26 l28 26
-22 39 -21 39 21 12 c12 6 28 17 35 25 7 7 17 13 21 13 12 0 48 -43 56 -67 3
-13 11 -23 16 -23 14 0 10 52 -6 80 -18 32 -18 41 0 34 8 -4 15 -11 15 -18z
m7148 -216 c24 -25 51 -52 59 -61 8 -10 35 -20 61 -24 57 -8 111 -41 136 -85
l18 -32 -48 27 c-27 15 -56 33 -64 40 -9 7 -23 10 -34 6 -19 -7 -19 -8 2 -29
12 -12 30 -22 41 -22 10 0 24 -7 31 -15 10 -12 9 -16 -4 -21 -9 -3 -16 -12
-16 -19 0 -25 71 -75 130 -92 61 -17 130 -64 130 -88 0 -8 -9 -23 -21 -33 -22
-21 -22 -21 36 -70 43 -37 21 -38 -55 -3 -76 35 -123 38 -128 8 -2 -11 5 -25
17 -33 42 -30 19 -64 -29 -44 -32 13 -42 34 -46 95 -1 22 -5 49 -7 60 -3 11
-6 28 -6 38 -1 22 -41 23 -41 0 0 -13 -4 -11 -20 7 -11 13 -20 32 -20 44 -1
32 -22 53 -73 75 -26 11 -48 24 -48 28 -1 4 -3 34 -4 65 -4 97 -39 127 -107
92 -31 -16 -33 -16 -50 6 -24 29 -23 34 7 50 14 7 25 17 25 22 0 4 9 8 20 8
20 0 28 24 10 35 -5 3 -19 19 -31 36 l-21 30 52 -28 c29 -15 73 -48 98 -73z
m-438 63 c0 -13 -3 -13 -15 -3 -8 7 -12 16 -9 21 8 13 24 1 24 -18z m-6530
-176 c0 -15 -38 -57 -83 -91 -42 -32 -47 -32 -47 -1 0 16 6 25 15 25 9 0 18 8
22 18 11 31 46 62 70 62 13 0 23 -6 23 -13z m6808 -21 c2 -10 -1 -23 -7 -29
-16 -16 -44 14 -35 37 8 22 38 17 42 -8z m-6658 -50 c0 -16 -14 -36 -26 -36
-8 0 -19 -11 -26 -24 -13 -30 -36 -40 -53 -26 -13 11 -14 34 -3 45 3 3 16 8
29 10 12 3 30 11 38 20 14 14 41 21 41 11z m8543 -66 c6 -23 -10 -37 -24 -23
-10 10 -2 43 11 43 4 0 10 -9 13 -20z m-8261 -394 c23 -27 22 -36 -1 -36 -10
0 -40 -23 -66 -51 -42 -45 -50 -50 -71 -40 -48 22 -48 80 1 106 11 6 35 20 54
32 37 24 57 21 83 -11z m8524 -790 c-4 -23 -11 -45 -16 -49 -10 -11 -21 40
-16 68 3 11 5 23 5 27 1 4 8 5 17 1 13 -5 15 -14 10 -47z m117 -182 c3 -19 1
-24 -11 -22 -10 2 -17 16 -20 37 -3 30 -1 33 11 23 8 -7 17 -24 20 -38z"/>
<path d="M8670 7651 c0 -14 51 -52 62 -45 14 9 -16 49 -41 52 -11 2 -21 -1
-21 -7z"/>
<path d="M2691 9911 c-7 -4 -15 -22 -17 -39 -4 -27 -2 -32 15 -32 30 0 53 27
41 50 -13 25 -23 30 -39 21z"/>
<path d="M8552 9673 c4 -21 49 -46 61 -34 5 5 4 18 -2 30 -15 27 -64 30 -59 4z"/>
<path d="M9034 9594 c7 -42 30 -84 47 -84 5 0 9 6 8 13 -3 26 2 37 16 37 8 0
15 3 14 8 0 9 -52 50 -74 58 -14 6 -16 2 -11 -32z"/>
<path d="M5680 9550 c-7 -12 -18 -19 -26 -16 -8 3 -19 -4 -25 -17 -7 -12 -20
-28 -31 -35 -20 -15 -24 -37 -6 -48 6 -4 34 -6 61 -5 54 2 117 -15 117 -30 0
-6 5 -7 11 -3 6 3 7 9 3 13 -15 11 -36 53 -29 59 3 3 24 5 46 3 47 -3 69 12
69 46 0 20 -4 24 -24 21 -13 -1 -36 4 -51 12 -24 13 -28 13 -37 -4 -9 -15 -12
-16 -26 -3 -32 27 -41 28 -52 7z"/>
<path d="M8063 9543 c-18 -2 -33 -7 -33 -11 1 -32 85 -56 96 -27 6 15 -12 47
-25 43 -3 0 -21 -3 -38 -5z"/>
<path d="M5814 9415 c-4 -9 -2 -21 4 -27 15 -15 44 -1 40 19 -4 23 -36 29 -44
8z"/>
<path d="M7390 9397 c0 -17 34 -49 43 -40 12 11 8 20 -18 37 -20 13 -25 14
-25 3z"/>
<path d="M7008 9353 c-29 -3 -38 -9 -38 -23 0 -10 7 -21 16 -24 27 -10 102 -7
110 6 7 11 -31 50 -45 46 -3 -1 -23 -3 -43 -5z"/>
<path d="M6268 9296 c-18 -14 -24 -36 -10 -36 4 0 13 5 19 11 8 8 17 5 33 -11
29 -29 39 -17 14 17 -25 33 -34 36 -56 19z"/>
<path d="M10233 9213 c-8 -3 -13 -23 -13 -50 0 -39 5 -49 31 -72 18 -14 59
-52 93 -84 58 -55 86 -63 52 -15 -9 12 -16 34 -16 49 0 15 -7 32 -15 39 -8 7
-20 30 -26 51 -17 56 -70 97 -106 82z"/>
</g>
</svg>
